<svg width="132" height="128" viewBox="0 0 132 128" fill="none" xmlns="http://www.w3.org/2000/svg">
<g filter="url(#filter0_dd_2_518)">
<path d="M100.743 92.3245C107.715 83.4642 113.477 69.7121 111.662 58.1506C111.089 45.2771 105.82 33.2554 96.6739 24.0839C86.9737 14.3568 74.0767 9 60.3585 9C52.2433 9 44.4762 10.8463 37.2733 14.4868C36.2839 14.9872 35.8855 16.1968 36.3845 17.1889C36.8835 18.181 38.0897 18.5797 39.0791 18.0801C40.6641 17.2787 42.2806 16.5742 43.9229 15.9628L39.0296 31.0632H23.2125C24.2773 29.7165 25.4175 28.4186 26.6371 27.1783C27.4151 26.3864 27.4056 25.113 26.6167 24.3329C25.8277 23.5535 24.557 23.5622 23.7798 24.3534C14.3507 33.9464 9 47.0319 9 60.5004C9 88.5839 32.3673 112 60.3585 112C75.0299 112 92.3833 105.063 100.743 92.3245V92.3245ZM92.1578 68.7452L79.1217 64.4987L73.195 46.2053L81.2513 35.0859H100.333C104.493 41.6436 107.092 49.288 107.606 57.491L92.1578 68.7452ZM60.3585 76.1185L45.5449 65.3261L51.2028 47.8641H69.5134L75.1713 65.3261L60.3585 76.1185ZM107.662 62.4239C107.303 71.4165 104.439 79.7725 99.7496 86.8093L94.8689 71.7443L107.662 62.4239ZM97.4778 31.0632H81.6866L76.7988 15.9769C85.0005 19.032 92.135 24.3037 97.4778 31.0632V31.0632ZM60.3585 13.0235C64.4102 13.0235 68.3449 13.5373 72.1019 14.5026L78.005 32.7211L69.9487 43.8413H50.7675L42.7112 32.7219L48.6182 14.4923C52.4185 13.5184 56.3414 13.0235 60.3585 13.0235ZM39.4649 35.0859L47.5212 46.2053L41.5945 64.4987L28.5584 68.746L13.1091 57.4902C13.6089 49.4519 16.1039 41.7878 20.3552 35.0859H39.4649ZM13.0549 62.4239L25.8481 71.7443L20.9666 86.8093C16.2775 79.7725 13.414 71.4165 13.0549 62.4239ZM23.9048 90.7619L29.7985 72.5725L42.8346 68.3252L58.3523 79.6306V93.3749L42.9014 104.631C35.4588 101.661 28.9396 96.85 23.9048 90.7619V90.7619ZM47.5582 106.212L60.3585 96.8862L73.1588 106.212C69.0851 107.361 64.7921 107.976 60.3585 107.976C55.9241 107.976 51.6311 107.361 47.5582 106.212V106.212ZM77.8149 104.631L62.3647 93.3749V79.6306L77.8824 68.3252L90.9177 72.5717L96.8114 90.7619C91.7766 96.85 85.2574 101.661 77.8149 104.631V104.631Z" fill="#FF7B31"/>
<path d="M31.3088 22.5053C31.7277 22.5053 32.1504 22.3745 32.5111 22.1027C33.3975 21.436 33.5775 20.1752 32.9127 19.2864C32.2479 18.3975 30.9906 18.2178 30.1041 18.8845L30.1026 18.8853C29.2162 19.5519 29.037 20.8119 29.7018 21.7008C30.0963 22.228 30.6982 22.5053 31.3088 22.5053Z" fill="#FF7B31"/>
<path d="M88.1626 88.3812C86.8747 89.6719 85.4853 90.8831 84.0331 91.9815C83.1483 92.6506 82.9715 93.9121 83.6386 94.7994C84.0331 95.3234 84.6343 95.6 85.2417 95.6C85.6629 95.6 86.0865 95.4677 86.4487 95.1942C88.0495 93.9839 89.5803 92.649 90.9995 91.2259C91.7829 90.4402 91.7829 89.1668 90.9995 88.3812C90.2168 87.5956 88.9461 87.5956 88.1626 88.3812Z" fill="#FF7B31"/>
<path d="M77.5186 95.9769C76.5127 96.4426 76.0734 97.638 76.5379 98.6467C76.8766 99.3826 77.6027 99.816 78.361 99.816C78.6423 99.816 78.9284 99.7562 79.2003 99.6301L79.2018 99.6293C80.2077 99.1644 80.6462 97.969 80.1818 96.9603C79.7173 95.9517 78.5244 95.5112 77.5186 95.9769V95.9769Z" fill="#FF7B31"/>
</g>
<defs>
<filter id="filter0_dd_2_518" x="0.234042" y="0.234042" width="131.489" height="127.106" filterUnits="userSpaceOnUse" color-interpolation-filters="sRGB">
<feFlood flood-opacity="0" result="BackgroundImageFix"/>
<feColorMatrix in="SourceAlpha" type="matrix" values="0 0 0 0 0 0 0 0 0 0 0 0 0 0 0 0 0 0 127 0" result="hardAlpha"/>
<feOffset dx="10.9574" dy="6.57447"/>
<feGaussianBlur stdDeviation="4.38298"/>
<feComposite in2="hardAlpha" operator="out"/>
<feColorMatrix type="matrix" values="0 0 0 0 0 0 0 0 0 0 0 0 0 0 0 0 0 0 0.25 0"/>
<feBlend mode="normal" in2="BackgroundImageFix" result="effect1_dropShadow_2_518"/>
<feColorMatrix in="SourceAlpha" type="matrix" values="0 0 0 0 0 0 0 0 0 0 0 0 0 0 0 0 0 0 127 0" result="hardAlpha"/>
<feOffset/>
<feGaussianBlur stdDeviation="4.38298"/>
<feComposite in2="hardAlpha" operator="out"/>
<feColorMatrix type="matrix" values="0 0 0 0 1 0 0 0 0 0.482667 0 0 0 0 0.191667 0 0 0 1 0"/>
<feBlend mode="normal" in2="effect1_dropShadow_2_518" result="effect2_dropShadow_2_518"/>
<feBlend mode="normal" in="SourceGraphic" in2="effect2_dropShadow_2_518" result="shape"/>
</filter>
</defs>
</svg>
